<svg width="18" height="19" viewBox="0 0 18 19" fill="none" xmlns="http://www.w3.org/2000/svg">
<g opacity="0.8" clip-path="url(#clip0_3_1352)">
<path d="M17.9998 9.20347C17.9998 4.20172 13.9701 0.147217 8.99981 0.147217C4.02731 0.148342 -0.00244141 4.20172 -0.00244141 9.20459C-0.00244141 13.7237 3.28931 17.47 7.59131 18.1495V11.8213H5.30756V9.20459H7.59356V7.20772C7.59356 4.93859 8.93793 3.68534 10.9933 3.68534C11.9788 3.68534 13.0082 3.86197 13.0082 3.86197V6.08947H11.8731C10.7559 6.08947 10.4072 6.78809 10.4072 7.50472V9.20347H12.9024L12.5042 11.8202H10.4061V18.1483C14.7081 17.4688 17.9998 13.7226 17.9998 9.20347Z" fill="#494F53"/>
</g>
<defs>
<clipPath id="clip0_3_1352">
<rect width="18" height="18" fill="white" transform="translate(0 0.148438)"/>
</clipPath>
</defs>
</svg>
