<svg width="18" height="19" viewBox="0 0 18 19" fill="none" xmlns="http://www.w3.org/2000/svg">
<path d="M9 0.148438C6.55762 0.148438 6.2505 0.159688 5.29088 0.202438C4.33125 0.247437 3.67762 0.398187 3.105 0.620937C2.50436 0.846859 1.9603 1.20124 1.51088 1.65931C1.05309 2.10897 0.698746 2.65296 0.4725 3.25344C0.24975 3.82494 0.097875 4.47969 0.054 5.43594C0.01125 6.39781 0 6.70381 0 9.14956C0 11.5931 0.01125 11.8991 0.054 12.8587C0.099 13.8172 0.24975 14.4708 0.4725 15.0434C0.703125 15.6352 1.01025 16.1369 1.51088 16.6376C2.01038 17.1382 2.51213 17.4464 3.10388 17.6759C3.67763 17.8987 4.33013 18.0506 5.28863 18.0944C6.24938 18.1372 6.55537 18.1484 9 18.1484C11.4446 18.1484 11.7495 18.1372 12.7103 18.0944C13.6676 18.0494 14.3235 17.8987 14.8961 17.6759C15.4964 17.4499 16.04 17.0955 16.4891 16.6376C16.9897 16.1369 17.2969 15.6352 17.5275 15.0434C17.7491 14.4708 17.901 13.8172 17.946 12.8587C17.9887 11.8991 18 11.5931 18 9.14844C18 6.70381 17.9887 6.39781 17.946 5.43706C17.901 4.47969 17.7491 3.82494 17.5275 3.25344C17.3013 2.65294 16.9469 2.10895 16.4891 1.65931C16.0398 1.20107 15.4957 0.846664 14.895 0.620937C14.3212 0.398187 13.6665 0.246313 12.7091 0.202438C11.7484 0.159688 11.4435 0.148438 8.99775 0.148438H9.00113H9ZM8.19337 1.77069H9.00113C11.4041 1.77069 11.6887 1.77856 12.6371 1.82244C13.5146 1.86181 13.9916 2.00919 14.3089 2.13181C14.7285 2.29494 15.0289 2.49069 15.3439 2.80569C15.6589 3.12069 15.8535 3.41994 16.0166 3.84069C16.1404 4.15681 16.2866 4.63381 16.326 5.51131C16.3699 6.45969 16.3789 6.74431 16.3789 9.14619C16.3789 11.5481 16.3699 11.8338 16.326 12.7822C16.2866 13.6597 16.1393 14.1356 16.0166 14.4528C15.8723 14.8436 15.642 15.1969 15.3427 15.4867C15.0277 15.8017 14.7285 15.9963 14.3078 16.1594C13.9928 16.2832 13.5157 16.4294 12.6371 16.4699C11.6887 16.5127 11.4041 16.5228 9.00113 16.5228C6.59813 16.5228 6.31238 16.5127 5.364 16.4699C4.4865 16.4294 4.01062 16.2832 3.69337 16.1594C3.30244 16.0153 2.94877 15.7855 2.65837 15.4867C2.35884 15.1965 2.12819 14.8428 1.98338 14.4517C1.86075 14.1356 1.71338 13.6586 1.674 12.7811C1.63125 11.8327 1.62225 11.5481 1.62225 9.14394C1.62225 6.74094 1.63125 6.45744 1.674 5.50906C1.7145 4.63156 1.86075 4.15456 1.9845 3.83731C2.14763 3.41769 2.34337 3.11731 2.65837 2.80231C2.97337 2.48731 3.27262 2.29269 3.69337 2.12956C4.01062 2.00581 4.4865 1.85956 5.364 1.81906C6.19425 1.78081 6.516 1.76956 8.19337 1.76844V1.77069V1.77069ZM13.8049 3.26469C13.663 3.26469 13.5226 3.29262 13.3916 3.3469C13.2605 3.40117 13.1415 3.48072 13.0412 3.58101C12.9409 3.6813 12.8614 3.80036 12.8071 3.93139C12.7528 4.06242 12.7249 4.20286 12.7249 4.34469C12.7249 4.48652 12.7528 4.62695 12.8071 4.75799C12.8614 4.88902 12.9409 5.00808 13.0412 5.10836C13.1415 5.20865 13.2605 5.2882 13.3916 5.34248C13.5226 5.39675 13.663 5.42469 13.8049 5.42469C14.0913 5.42469 14.366 5.3109 14.5686 5.10836C14.7711 4.90582 14.8849 4.63112 14.8849 4.34469C14.8849 4.05825 14.7711 3.78355 14.5686 3.58101C14.366 3.37847 14.0913 3.26469 13.8049 3.26469V3.26469ZM9.00113 4.52694C8.38808 4.51737 7.77926 4.62986 7.2101 4.85785C6.64094 5.08583 6.12283 5.42477 5.68592 5.85491C5.24901 6.28506 4.90203 6.79783 4.6652 7.36335C4.42836 7.92888 4.30639 8.53588 4.30639 9.149C4.30639 9.76212 4.42836 10.3691 4.6652 10.9346C4.90203 11.5002 5.24901 12.0129 5.68592 12.4431C6.12283 12.8732 6.64094 13.2122 7.2101 13.4402C7.77926 13.6681 8.38808 13.7806 9.00113 13.7711C10.2145 13.7521 11.3717 13.2568 12.2231 12.3921C13.0745 11.5273 13.5516 10.3625 13.5516 9.149C13.5516 7.93549 13.0745 6.77065 12.2231 5.90591C11.3717 5.04116 10.2145 4.54587 9.00113 4.52694V4.52694ZM9.00113 6.14806C9.79687 6.14806 10.56 6.46417 11.1227 7.02685C11.6854 7.58953 12.0015 8.35269 12.0015 9.14844C12.0015 9.94419 11.6854 10.7073 11.1227 11.27C10.56 11.8327 9.79687 12.1488 9.00113 12.1488C8.20538 12.1488 7.44222 11.8327 6.87954 11.27C6.31686 10.7073 6.00075 9.94419 6.00075 9.14844C6.00075 8.35269 6.31686 7.58953 6.87954 7.02685C7.44222 6.46417 8.20538 6.14806 9.00113 6.14806V6.14806Z" fill="#494F53"/>
</svg>
