<svg width="1327" height="405" viewBox="0 0 1327 405" fill="none" xmlns="http://www.w3.org/2000/svg">
<path d="M779.794 244.672L728.528 102.263L727.694 99.9355H666.795L746.651 315.218H812.6L892.017 99.9355H831.133L779.794 244.672Z" fill="#271744"/>
<path d="M933.768 4.48828C924.223 4.48828 916.055 7.75279 909.482 14.1793C902.88 20.6352 899.527 28.6135 899.527 37.9093C899.527 47.4686 902.865 55.6518 909.453 62.2248C916.026 68.8124 924.209 72.1501 933.768 72.1501C943.049 72.1501 951.101 68.8124 957.688 62.2248C964.276 55.6518 967.614 47.4686 967.614 37.9093C967.614 28.6135 964.261 20.6352 957.659 14.1793C951.072 7.75279 943.035 4.48828 933.768 4.48828Z" fill="#271744"/>
<path d="M964.789 99.9355H903.173V315.218H964.789V99.9355Z" fill="#271744"/>
<path d="M986.19 66.2518C986.19 51.6274 989.03 39.6966 994.608 30.796C1000.19 21.9979 1007.27 15.1908 1015.72 10.5941C1023.99 6.0999 1033.01 3.12817 1042.55 1.72282C1051.95 0.361384 1060.72 -0.209547 1068.68 0.0685957C1076.6 0.346738 1086.04 1.43005 1096.67 3.33313L1099.97 3.93329L1093.44 55.5946L1089.97 55.17C1087.73 54.8919 1085.17 54.4674 1082.43 53.9111C1080.57 53.7062 1077.98 53.4134 1074.92 53.1792C1071.87 52.901 1068.78 52.7546 1065.72 52.7546C1061.03 52.7546 1057.48 53.4866 1055.24 54.8626C1052.96 56.2973 1051.25 58.0247 1050.22 59.9863C1049.09 62.1236 1048.39 64.6123 1048.19 67.3498C1047.91 70.4679 1047.81 73.4836 1047.81 76.3675V99.9657H1095.3L1088.14 146.62H1047.81V315.263H986.176V146.62V66.2518H986.19Z" fill="#271744"/>
<path d="M1176.54 127.34C1190.55 169.032 1215.6 243.589 1215.6 243.589L1259.27 99.9355H1326.3L1247.53 320.019L1246.72 322.259C1244.66 328.042 1242.2 333.663 1239.36 339.109C1238.19 341.348 1236.86 343.735 1235.38 346.253C1231.81 352.299 1227.21 358.769 1221.73 365.488C1216.16 372.296 1209.35 378.693 1201.47 384.49C1193.58 390.302 1184.32 395.22 1173.94 399.114C1163.47 403.008 1151.55 404.999 1138.54 404.999H1135.03V351.479H1138.54C1145.68 351.479 1151.88 349.942 1156.97 346.926C1162.33 343.735 1166.82 340.192 1170.35 336.415C1174.07 332.228 1177.33 327.383 1180.03 322.025L1099.98 99.9355H1167.35C1167.33 99.9355 1171.11 111.164 1176.54 127.34Z" fill="#271744"/>
<path d="M665.99 142.666C665.361 134.044 663.326 126.461 659.93 120.108C656.314 113.344 650.561 108.045 642.817 104.327C635.351 100.755 625.381 99.0273 612.309 99.0273H476.941V147.819H600.788C605.663 147.819 609.703 148.449 612.748 149.781C613.275 149.986 614.636 151.991 614.753 158.198C607.595 159.384 599.704 160.76 591.287 162.297C580.659 164.23 569.607 166.821 558.496 170.012C547.414 173.204 536.405 177.097 525.806 181.518C514.974 186.115 505.18 191.766 496.733 198.353C488.111 205.087 481.055 212.978 475.755 221.776C470.28 230.896 467.514 241.627 467.514 253.631C467.514 264.507 469.9 274.33 474.628 282.879C479.254 291.224 485.461 298.412 493.074 304.238C500.613 310.02 509.279 314.412 518.78 317.355C528.251 320.224 538.03 321.702 547.897 321.702C558.671 321.702 568.772 319.99 577.922 316.623C586.895 313.285 594.961 308.908 601.871 303.652C606.643 299.963 610.845 295.908 614.358 291.517V315.232H639.611H666.795L666.825 245.257V168.753C666.839 159.37 666.547 150.601 665.99 142.666ZM609.103 234.673C605.385 240.734 600.51 246.311 594.61 251.186C588.681 256.09 581.801 260.203 574.233 263.395C566.825 266.44 559.359 268.021 551.966 268.021C548.599 268.021 544.984 267.596 541.236 266.718C537.591 265.913 534.297 264.683 531.384 263.073C528.72 261.565 526.436 259.603 524.65 257.29C523.171 255.358 522.44 253.118 522.44 250.381C522.44 246.414 523.874 242.842 526.86 239.431C530.374 235.434 535.029 231.716 540.753 228.378C546.682 224.909 553.445 221.747 560.882 219.009C568.421 216.199 576.062 213.71 583.616 211.543C591.082 209.435 598.27 207.576 605.018 206.112C608.459 205.38 611.577 204.707 614.388 204.107V217.018V218.38C614.358 223.474 612.572 228.993 609.103 234.673Z" fill="#271744"/>
<path d="M357.999 147.762L356.315 146.898L355.583 148.64C351.923 157.292 347.488 166.31 342.379 175.444L341.486 177.025L343.111 177.86C361.732 187.404 368.363 196.847 368.363 202.497C368.363 208.163 361.732 217.62 343.111 227.179C339.612 228.979 335.747 230.736 331.59 232.434C328.003 226.227 324.153 220.05 320.142 214.048L318.751 211.969L317.273 213.989C310.992 222.538 304.346 230.927 297.539 238.949L296.719 239.915L297.393 240.998C322.865 282.383 327.725 312.51 319.366 320.854C311.007 329.213 280.88 324.338 239.495 298.881C236.07 296.788 232.483 294.475 228.809 292.001C231.824 289.468 234.972 286.745 238.368 283.715C245.98 276.996 253.578 269.852 260.971 262.459C268.378 255.052 275.522 247.454 282.227 239.871C285.828 235.845 289.019 232.127 292.006 228.511C298.769 220.43 305.313 212.027 311.461 203.507C314.55 199.218 317.404 195.105 320.157 190.947C324.46 184.506 328.574 177.874 332.366 171.228C337.723 161.772 342.276 152.607 345.877 144C361.512 106.729 360.575 77.8018 343.125 60.3666C325.954 43.195 297.612 42.0239 261.117 56.9411C259.492 53.091 257.692 49.2409 255.774 45.4787C241.003 16.6983 222.075 1.48828 201.009 1.48828C179.929 1.48828 161.001 16.6983 146.274 45.4787L145.41 47.1622L147.152 47.8942C155.804 51.5539 164.821 55.9896 173.956 61.0986L175.537 61.9769L176.372 60.3666C185.931 41.7457 195.358 35.1142 201.009 35.1142C206.674 35.1142 216.131 41.7457 225.691 60.3666C227.491 63.88 229.263 67.7594 230.946 71.8876C224.739 75.4888 218.547 79.3242 212.559 83.3353L210.481 84.726L212.501 86.2046C221.021 92.4701 229.424 99.1016 237.46 105.938L238.427 106.758L239.51 106.084C280.88 80.6271 311.007 75.7816 319.366 84.1405C327.71 92.4848 322.85 122.597 297.393 163.967C295.27 167.422 293.016 170.936 290.512 174.654C287.98 171.638 285.257 168.491 282.227 165.095C275.522 157.497 268.363 149.899 260.971 142.492C253.563 135.084 245.966 127.941 238.383 121.236C234.313 117.605 230.595 114.399 227.023 111.457C218.942 104.694 210.539 98.1501 202.019 92.0017C197.701 88.8836 193.587 86.0436 189.459 83.3061C183.032 79.0168 176.401 74.9032 169.74 71.0971C160.444 65.8124 151.295 61.2596 142.541 57.5852C105.24 41.9507 76.3135 42.9022 58.8784 60.3374C41.6921 77.5236 40.521 105.865 55.4528 142.36C51.5149 144.044 47.6648 145.844 43.9904 147.733C15.21 162.533 0 181.461 0 202.497C0 223.578 15.21 242.506 43.9904 257.233L45.6739 258.082L46.4059 256.355C50.1388 247.556 54.5745 238.553 59.6103 229.594L60.5033 227.999L58.8784 227.164C40.2575 217.62 33.626 208.163 33.626 202.483C33.626 196.832 40.2575 187.39 58.8784 177.831C62.3185 176.045 66.1833 174.259 70.3847 172.546C73.9859 178.767 77.8213 184.945 81.8324 190.932L83.2231 193.011L84.7017 190.991C90.9818 182.457 97.6133 174.054 104.435 166.017L105.255 165.051L104.582 163.967C79.1242 122.627 74.2787 92.5141 82.6376 84.1405C91.0111 75.767 121.124 80.6125 162.464 106.084C165.875 108.178 169.462 110.491 173.151 112.965C170.135 115.483 167.003 118.206 163.592 121.251C156.023 127.926 148.411 135.084 140.989 142.507C133.582 149.914 126.438 157.512 119.733 165.095C116.088 169.179 112.897 172.897 109.954 176.455C103.22 184.506 96.6765 192.909 90.4988 201.458C87.4246 205.733 84.5699 209.846 81.8032 214.018C77.5139 220.445 73.4003 227.076 69.5941 233.737C64.2362 243.194 59.6835 252.358 56.0823 260.966C40.4478 298.252 41.3993 327.178 58.8344 344.599C76.0207 361.785 104.362 362.956 140.872 348.024C142.497 351.86 144.283 355.71 146.215 359.487C160.942 388.267 179.87 403.477 200.951 403.477C213.628 403.477 225.53 398.002 236.319 387.199C243.389 380.128 249.904 370.803 255.686 359.487L256.535 357.803L254.808 357.071C246.01 353.338 237.007 348.903 228.047 343.867L226.466 342.974L225.632 344.599C216.087 363.205 206.631 369.837 200.951 369.837C195.285 369.837 185.843 363.205 176.298 344.584C174.512 341.144 172.726 337.279 171.014 333.078C177.235 329.477 183.413 325.627 189.4 321.63L191.479 320.239L189.459 318.761C180.924 312.495 172.521 305.849 164.499 299.027L163.533 298.208L162.45 298.881C121.08 324.338 90.9818 329.199 82.6229 320.854C74.2494 312.481 79.1096 282.368 104.552 240.998C106.792 237.368 109.105 233.781 111.433 230.312C113.994 233.357 116.717 236.504 119.718 239.871C126.423 247.469 133.582 255.066 140.974 262.474C148.367 269.866 155.965 277.01 163.562 283.73C167.647 287.389 171.365 290.581 174.922 293.508C182.959 300.242 191.377 306.786 199.926 312.964C204.23 316.053 208.343 318.907 212.486 321.659C218.898 325.949 225.53 330.048 232.205 333.868C241.676 339.241 250.826 343.779 259.434 347.38C296.719 363.015 325.646 362.063 343.067 344.628C360.238 327.457 361.424 299.115 346.492 262.62C350.445 260.951 354.295 259.151 357.94 257.248C369.271 251.48 378.61 244.965 385.696 237.88C396.47 227.106 401.945 215.219 401.945 202.541C401.989 181.461 386.779 162.533 357.999 147.762ZM259.873 202.497C259.873 234.967 233.464 261.376 200.994 261.376C168.525 261.376 142.116 234.967 142.116 202.497C142.116 170.028 168.525 143.619 200.994 143.619C233.464 143.619 259.873 170.043 259.873 202.497Z" fill="#271744"/>
</svg>
