<svg width="122" height="28" viewBox="0 0 122 28" fill="none" xmlns="http://www.w3.org/2000/svg">
<path d="M71.4749 26.8505C71.5424 26.8554 71.605 26.8505 71.6677 26.8457C71.9811 26.8312 72.1354 26.7252 72.1354 26.46V24.8254H72.3524V26.4503C72.3524 26.8312 72.092 26.9663 71.6918 26.9807C71.6195 26.9855 71.552 26.9855 71.4749 26.9807V26.8505Z" fill="#DDBB67" stroke="#DDBB67" stroke-width="0.228" stroke-miterlimit="10"/>
<path d="M75.1587 25.351C75.1587 25.0376 75.3805 24.8062 75.8819 24.8062C76.393 24.8062 76.6148 25.0376 76.6148 25.351V26.4552C76.6148 26.7686 76.393 27 75.8819 27C75.3805 27 75.1587 26.7686 75.1587 26.4552V25.351ZM75.3757 26.46C75.3757 26.6914 75.5155 26.865 75.8771 26.865C76.2436 26.865 76.393 26.6914 76.393 26.46V25.3414C76.393 25.1099 76.2484 24.9363 75.8771 24.9363C75.5155 24.9363 75.3757 25.1099 75.3757 25.3414V26.46Z" fill="#DDBB67" stroke="#DDBB67" stroke-width="0.228" stroke-miterlimit="10"/>
<path d="M80.0287 26.1514L79.2861 24.8254H79.5128L80.1444 25.9585L80.776 24.8254H80.9882L80.2408 26.1514V26.9807H80.0238V26.1514H80.0287Z" fill="#DDBB67" stroke="#DDBB67" stroke-width="0.228" stroke-miterlimit="10"/>
<path d="M83.8423 26.5034L83.6784 26.9807H83.4807L84.204 24.8254H84.5222L85.2599 26.9807H85.0429L84.8694 26.5034H83.8423ZM83.8761 26.378H84.8404L84.3534 24.9846L83.8761 26.378Z" fill="#DDBB67" stroke="#DDBB67" stroke-width="0.228" stroke-miterlimit="10"/>
<path d="M89.426 25.3462V25.3896H89.2187V25.3365C89.2187 25.1099 89.0885 24.9363 88.7268 24.9363C88.37 24.9363 88.235 25.1051 88.235 25.3317C88.235 25.8525 89.426 25.8621 89.426 26.4552C89.426 26.7686 89.2187 26.9952 88.7124 26.9952C88.2109 26.9952 87.9988 26.7686 87.9988 26.4552V26.3443H88.2061V26.4648C88.2061 26.6962 88.3411 26.8602 88.7076 26.8602C89.0692 26.8602 89.209 26.6962 89.209 26.4648C89.209 25.9489 88.0181 25.9392 88.0181 25.3414C88.0181 25.0183 88.235 24.811 88.722 24.8062C89.2235 24.8062 89.426 25.0328 89.426 25.3462Z" fill="#DDBB67" stroke="#DDBB67" stroke-width="0.228" stroke-miterlimit="10"/>
<path d="M95.7276 26.5034L95.5636 26.9807H95.366L96.0892 24.8254H96.4074L97.1452 26.9807H96.9282L96.7642 26.5034H95.7276ZM95.7613 26.378H96.7257L96.2387 24.9846L95.7613 26.378Z" fill="#DDBB67" stroke="#DDBB67" stroke-width="0.228" stroke-miterlimit="10"/>
<path d="M104.209 26.9759H103.992L103.298 25.0713V26.9807H103.105V24.8254H103.418L104.113 26.73L104.802 24.8254H105.111V26.9807H104.903V25.0665L104.209 26.9759Z" fill="#DDBB67" stroke="#DDBB67" stroke-width="0.228" stroke-miterlimit="10"/>
<path d="M108.25 26.5034L108.086 26.9807H107.888L108.611 24.8254H108.93L109.663 26.9807H109.446L109.282 26.5034H108.25ZM108.284 26.378H109.248L108.761 24.9846L108.284 26.378Z" fill="#DDBB67" stroke="#DDBB67" stroke-width="0.228" stroke-miterlimit="10"/>
<path d="M112.642 26.9759H112.444V24.8206H112.729L113.717 26.6384V24.8206H113.915V26.9759H113.674L112.642 25.0569V26.9759Z" fill="#DDBB67" stroke="#DDBB67" stroke-width="0.228" stroke-miterlimit="10"/>
<path d="M116.726 25.351C116.726 25.0376 116.948 24.8062 117.449 24.8062C117.96 24.8062 118.182 25.0376 118.182 25.351V26.4552C118.182 26.7686 117.96 27 117.449 27C116.948 27 116.726 26.7686 116.726 26.4552V25.351ZM116.938 26.46C116.938 26.6914 117.078 26.865 117.444 26.865C117.811 26.865 117.96 26.6914 117.96 26.46V25.3414C117.96 25.1099 117.816 24.9363 117.444 24.9363C117.083 24.9363 116.938 25.1099 116.938 25.3414V26.46Z" fill="#DDBB67" stroke="#DDBB67" stroke-width="0.228" stroke-miterlimit="10"/>
<path d="M88.9823 11.4984C89.0787 11.5803 89.1848 11.6334 89.3198 11.6478C89.4548 11.6575 89.855 11.6382 90.559 11.1223C91.181 10.669 91.3449 10.2785 91.3642 10.1869C91.3786 10.0953 91.3738 10.0036 91.3352 9.92168C91.3015 9.83489 91.2243 9.74328 91.152 9.68542C91.0218 9.57934 90.7952 9.52631 90.4673 9.52631C90.2166 9.52631 89.908 9.56488 89.6043 9.7481C89.2957 9.9265 89.0546 10.2737 88.9341 10.5437C88.8569 10.7173 88.7991 11.0692 88.8232 11.1898C88.828 11.3103 88.8907 11.4116 88.9823 11.4984Z" fill="#DDBB67"/>
<path d="M121.051 14.1792C120.979 14.0635 120.873 13.9767 120.733 13.914C120.588 13.8562 120.434 13.8417 120.27 13.8755C119.889 13.9574 119.523 14.0876 119.171 14.266C118.819 14.4492 118.476 14.618 118.153 14.7723C117.821 14.9459 117.488 15.1098 117.16 15.2641C116.832 15.4087 116.509 15.5582 116.176 15.698C115.487 15.9825 114.797 16.2429 114.113 16.4743C113.428 16.7058 112.724 16.9083 111.996 17.0867C111.784 17.1349 111.504 17.1928 111.172 17.2699C110.829 17.347 110.492 17.3904 110.135 17.4097C109.783 17.429 109.45 17.3953 109.161 17.3037C108.876 17.212 108.669 17.0288 108.549 16.754C108.428 16.4647 108.447 16.1513 108.597 15.8282C108.751 15.5052 108.891 15.2159 109.021 14.97C109.2 14.6276 109.388 14.2998 109.59 13.9815C109.797 13.6633 109.961 13.3258 110.087 12.969C110.14 12.8436 110.14 12.7424 110.082 12.6556C110.034 12.5688 109.961 12.5061 109.86 12.4627C109.759 12.4193 109.653 12.4049 109.537 12.4193C109.412 12.4386 109.32 12.4772 109.238 12.535C109.113 12.6315 108.987 12.7327 108.876 12.8533C108.78 12.969 108.664 13.0895 108.549 13.2149C108.471 13.0944 108.351 13.0076 108.201 12.9642C107.372 12.7568 106.528 12.6797 105.656 12.7231C104.793 12.7761 103.944 12.9256 103.119 13.1811C102.406 13.4029 101.726 13.7019 101.075 14.0587C101.065 14.0587 101.056 14.0587 101.046 14.0587C100.631 14.1407 100.236 14.2612 99.86 14.4203C99.4839 14.5794 99.0982 14.7434 98.7221 14.9169C98.3605 15.0857 97.9988 15.2593 97.6372 15.4232C97.2756 15.5871 96.9043 15.7607 96.5282 15.9343C95.8339 16.2525 95.1492 16.5467 94.479 16.8215C93.8088 17.1011 93.1049 17.3567 92.3816 17.5978C91.8223 17.7714 91.2533 17.9353 90.6748 18.0944C90.101 18.2487 89.5079 18.3403 88.9197 18.3789C88.7075 18.3982 88.4664 18.403 88.2254 18.3982C87.9746 18.3933 87.7287 18.3644 87.4925 18.3162C87.2466 18.2632 87.0296 18.186 86.8319 18.0799C86.6342 17.9787 86.4751 17.8292 86.3546 17.6508C86.1858 17.3712 86.1521 17.0722 86.2485 16.7492C86.3401 16.4213 86.4655 16.1272 86.6101 15.862C86.774 15.5823 86.9669 15.3027 87.1887 15.023C87.3285 14.8639 88.1386 14.0394 88.288 13.8996C88.4375 13.7597 88.5243 13.591 88.5581 13.3885C88.5822 13.2197 88.5532 13.0606 88.452 12.9015C88.3507 12.7472 88.1964 12.6797 87.9795 12.699C87.7818 12.699 87.5985 12.7472 87.425 12.8484C87.2562 12.9401 87.0874 13.051 86.9332 13.186C86.8608 13.2486 86.7162 13.4029 86.4655 13.6488C86.0556 14.0683 85.154 14.5939 84.6718 14.8253C84.3102 14.9989 83.7268 15.2496 82.9649 15.5823C82.5213 15.7752 82.0778 15.9536 81.6293 16.1272C81.1858 16.3056 80.7325 16.4695 80.2696 16.6286C79.7585 16.807 79.2571 16.971 78.7556 17.1253C78.2542 17.2747 77.7335 17.4242 77.2079 17.5688C76.6823 17.7328 76.1568 17.8774 75.6264 18.0173C75.096 18.1523 74.5656 18.2487 74.016 18.3017C73.6109 18.3355 73.2059 18.3114 72.7671 18.2342C72.3236 18.1523 71.9185 18.0124 71.5424 17.8244C71.1664 17.6267 70.853 17.3712 70.5974 17.0578C70.3322 16.7443 70.1972 16.3731 70.1731 15.9391C70.1538 15.7414 70.1345 15.592 70.1249 15.5004C70.1152 15.4087 70.1249 15.2545 70.1635 15.0375C70.8819 14.2901 71.6389 13.5428 72.4441 12.8051C73.2445 12.0625 74.0352 11.3055 74.8115 10.5389C75.5878 9.77706 76.3207 8.98631 77.0054 8.16663C77.6901 7.34695 78.2735 6.47423 78.7605 5.54365C78.9726 5.15792 79.1414 4.76254 79.2667 4.35752C79.3969 3.9525 79.4741 3.5282 79.503 3.07979C79.5223 2.8821 79.5271 2.66512 79.5223 2.43368C79.5223 2.20225 79.4982 1.97563 79.4596 1.73937C79.421 1.51275 79.3632 1.29095 79.2764 1.08362C79.1944 0.876292 79.0835 0.697891 78.9533 0.543598C78.7508 0.326623 78.5242 0.181974 78.2783 0.100006C78.0276 0.0180377 77.7672 -0.0108922 77.4972 0.00357279C77.2272 0.0228594 76.9523 0.0807192 76.6823 0.177152C76.4075 0.273585 76.1616 0.37484 75.9494 0.485738C75.4866 0.72682 75.0815 1.01612 74.7199 1.35363C74.3631 1.69597 74.0256 2.0576 73.717 2.42886C73.0275 3.26783 72.4103 4.15501 71.8559 5.08559C71.3158 6.02099 70.8144 6.97086 70.3756 7.94965C69.9079 9.02006 69.4932 10.1001 69.1364 11.1898C68.7845 12.2699 68.5145 13.374 68.3505 14.5023C68.1432 14.5746 67.9503 14.6662 67.7767 14.7819C67.5598 14.9218 67.3476 15.0712 67.1355 15.2303L65.2405 16.4984C64.5173 16.9565 63.7796 17.3904 63.0322 17.8099C62.2849 18.2294 61.4893 18.5718 60.6503 18.8418C60.4719 18.9044 60.2839 18.9671 60.0862 19.0202C59.8885 19.078 59.6908 19.1311 59.498 19.1793L58.9483 19.2757C58.8181 19.3095 58.7506 19.3239 58.7361 19.3239C58.7313 19.3239 58.659 19.3239 58.5288 19.3287C58.4324 19.3432 58.3359 19.3577 58.2443 19.3577C58.1527 19.3577 58.0659 19.3577 57.9791 19.3577C57.9502 19.3577 57.9165 19.3529 57.8731 19.348C57.8297 19.3384 57.7959 19.3336 57.7573 19.3384C57.7284 19.3384 57.6995 19.3336 57.685 19.3287C57.6657 19.3191 57.6416 19.3191 57.6079 19.3191C57.5259 19.3046 57.4488 19.2902 57.3861 19.2757C57.3234 19.2612 57.2463 19.2371 57.1643 19.2082C57.1498 19.2082 57.1402 19.1986 57.1402 19.1793C57.1257 19.1793 57.1064 19.1745 57.092 19.16C57.0437 19.1455 56.9714 19.107 56.8702 19.0443C56.8557 19.0443 56.8316 19.0346 56.8075 19.0105C56.7834 18.9864 56.7544 18.9768 56.7448 18.9768C56.6628 18.9478 56.6194 18.9093 56.6194 18.861C56.4651 18.755 56.3784 18.6634 56.3446 18.5814C56.1951 18.3837 56.0746 18.186 55.9878 17.9883C55.901 17.7858 55.8576 17.564 55.8528 17.3133C55.8528 17.106 55.8721 16.8986 55.9203 16.6913C55.9203 16.6913 56.3301 16.7395 56.9473 16.7395C58.2395 16.7395 59.363 16.2622 59.9608 15.7897C60.4285 15.4184 60.9879 14.6855 61.1373 13.943C61.2048 13.6151 61.2241 13.3017 61.1277 12.9883C61.0361 12.67 60.8095 12.3904 60.4382 12.1493C60.091 11.9227 59.7198 11.7877 59.3292 11.7539C58.9435 11.725 58.5529 11.7491 58.1672 11.8407C57.7815 11.9275 57.4054 12.0722 57.0582 12.2699C56.7014 12.4675 56.3928 12.6893 56.1373 12.9401C55.819 13.2535 55.5587 13.5813 55.3369 13.9333C55.2067 14.1407 55.0862 14.3528 54.9753 14.5746C54.9463 14.5746 54.9174 14.5698 54.8836 14.5746C54.604 14.6084 54.334 14.6759 54.0833 14.7819C53.8229 14.8832 53.5673 15.0037 53.3021 15.1291C52.9598 15.3027 52.6078 15.4666 52.2558 15.6113C51.9039 15.7607 51.5471 15.915 51.1854 16.079C50.2983 16.4599 49.4159 16.8215 48.5335 17.1735C47.6512 17.5206 46.7495 17.8437 45.8238 18.1523C45.3609 18.3114 44.9028 18.4609 44.4351 18.5959C43.9771 18.7357 43.5046 18.8562 43.032 18.9719C42.8151 19.0202 42.6077 19.0684 42.41 19.1166C42.2123 19.1648 42.005 19.2082 41.7929 19.242C41.5807 19.2757 41.4168 19.2998 41.3107 19.3143C41.2046 19.3287 41.0359 19.348 40.8092 19.3625C40.4621 19.4011 40.1535 19.3963 39.8883 19.3529C39.8353 19.3384 39.7967 19.3287 39.7629 19.3287C39.6762 19.3287 39.6328 19.3239 39.6135 19.3095C39.5749 19.3095 39.5074 19.295 39.411 19.2661H39.3869C39.3435 19.2323 39.3001 19.2034 39.2374 19.1745L39.1361 19.0828V19.0636L39.1072 19.0394L38.9288 18.5091C38.8951 18.3692 38.8902 18.2246 38.9143 18.0703C38.9336 17.916 38.9626 17.7665 38.9963 17.6315C39.1699 16.8745 39.5556 16.2332 40.139 15.7173C40.7321 15.2014 41.383 14.7868 42.1111 14.4685C42.8874 14.1503 43.6926 13.8947 44.5316 13.7019C44.6666 13.673 44.816 13.6488 44.98 13.6392C45.1439 13.6296 45.2741 13.6778 45.3802 13.7887C45.4284 13.8465 45.4862 13.9381 45.5393 14.0587C45.602 14.184 45.5779 14.2757 45.4814 14.3383C45.3946 14.3866 45.3464 14.4541 45.3223 14.536C45.2934 14.6228 45.3078 14.7048 45.3368 14.7771C45.3754 14.8543 45.4284 14.9169 45.5152 14.9603C45.5971 15.0037 45.6888 15.0134 45.7852 14.9796C46.089 14.8977 46.3059 14.7289 46.4506 14.4637C46.6 14.2033 46.6579 13.9381 46.6338 13.6778C46.6145 13.3065 46.4554 13.0076 46.1565 12.7809C45.8527 12.5543 45.5296 12.4145 45.1825 12.3711C44.7389 12.2988 44.2808 12.3277 43.8035 12.4579C43.3406 12.5881 42.8874 12.7134 42.4631 12.8436C42.0339 12.9835 41.6096 13.1426 41.195 13.3162C40.7755 13.4897 40.3753 13.7067 39.9944 13.9574C39.5701 14.2371 39.194 14.5553 38.8517 14.9025C38.7166 14.9603 38.5865 15.0278 38.4707 15.1098C38.2538 15.2496 38.0416 15.3991 37.8295 15.5582L35.9346 16.8263C35.2113 17.2844 34.4736 17.7183 33.7262 18.1378C32.9789 18.5573 32.1833 18.8996 31.3443 19.1696C31.1659 19.2323 30.9779 19.295 30.7802 19.348C30.5825 19.4059 30.3848 19.4589 30.192 19.5071L29.6423 19.6036C29.5121 19.6373 29.4446 19.6518 29.4302 19.6518C29.4253 19.6518 29.353 19.6518 29.2228 19.6566C29.1264 19.6711 29.03 19.6856 28.9383 19.6856C28.8467 19.6856 28.7599 19.6856 28.6732 19.6856C28.6442 19.6856 28.6105 19.6807 28.5671 19.6759C28.5237 19.6663 28.4899 19.6614 28.4514 19.6663C28.4224 19.6663 28.3935 19.6614 28.379 19.6566C28.3597 19.647 28.3356 19.647 28.3019 19.647C28.2199 19.6325 28.1428 19.618 28.0801 19.6036C28.0174 19.5891 27.9403 19.565 27.8583 19.5361C27.8438 19.5361 27.8342 19.5264 27.8342 19.5071C27.8197 19.5071 27.8004 19.5023 27.786 19.4879C27.7378 19.4734 27.6654 19.4348 27.5642 19.3721C27.5497 19.3721 27.5256 19.3625 27.5015 19.3384C27.4774 19.3143 27.4485 19.3046 27.4388 19.3046C27.3568 19.2757 27.3134 19.2371 27.3134 19.1889C27.1592 19.0828 27.0724 18.9912 27.0386 18.9093C26.8891 18.7116 26.7686 18.5139 26.6818 18.3162C26.595 18.1137 26.5516 17.8919 26.5468 17.6412C26.5468 17.4338 26.5661 17.2265 26.6143 17.0192C26.6143 17.0192 27.0242 17.0674 27.6413 17.0674C28.9335 17.0674 30.057 16.5901 30.6549 16.1175C31.1226 15.7463 31.6819 15.0134 31.8313 14.2708C31.8988 13.943 31.9181 13.6296 31.8217 13.3162C31.7301 12.9979 31.5035 12.7183 31.1322 12.4772C30.785 12.2506 30.4138 12.1156 30.0232 12.0818C29.6375 12.0529 29.2469 12.077 28.8612 12.1686C28.4755 12.2554 28.0994 12.4 27.7522 12.5977C27.3954 12.7954 27.0868 13.0172 26.8313 13.2679C26.5131 13.5813 26.2527 13.9092 26.0309 14.2612C25.8959 14.4685 25.7802 14.6903 25.6644 14.9121C25.6066 14.9266 25.5439 14.941 25.4812 14.97C23.6731 16.0404 21.8602 17.077 20.0231 18.0751C18.1957 19.0732 16.2912 19.9797 14.3191 20.7897C12.3904 21.5853 10.428 22.2458 8.43186 22.7762C7.98827 22.9064 7.51575 23.027 7.0143 23.1379C6.50802 23.2536 6.00657 23.3211 5.50512 23.3404C5.00367 23.3645 4.51668 23.3211 4.03934 23.2198C3.57164 23.1137 3.13287 22.9064 2.73267 22.5834C2.32283 22.2603 2.05282 21.8939 1.91299 21.4696C1.76352 21.0453 1.70084 20.6113 1.71048 20.1629C1.72013 19.7193 1.79245 19.2709 1.92746 18.8225C2.06246 18.3741 2.22158 17.9498 2.39998 17.5447C2.72303 16.7395 3.1184 15.9584 3.60539 15.2159C4.08273 14.4733 4.60829 13.7742 5.17725 13.1185C6.35373 11.7636 7.67969 10.5726 9.15511 9.54562C10.6305 8.51861 12.1976 7.6266 13.861 6.8696C14.4107 6.60441 14.9652 6.36815 15.5438 6.16564C16.1176 5.96313 16.7106 5.7992 17.3278 5.66901C17.5592 5.6208 17.81 5.58222 18.0848 5.54365C18.3548 5.5099 18.6297 5.49543 18.8997 5.50025C19.1745 5.5099 19.4445 5.54365 19.7097 5.59669C19.9701 5.65455 20.216 5.74616 20.4281 5.8667C20.6933 6.02099 20.8524 6.19457 20.9055 6.40672C20.9537 6.61406 20.9489 6.83103 20.8717 7.05765C20.7994 7.27944 20.6885 7.49642 20.5294 7.70857C20.3799 7.9159 20.2353 8.10877 20.1051 8.27752C19.4011 9.17917 18.5429 9.9651 17.5303 10.616C17.4146 10.698 17.3519 10.7944 17.3326 10.915C17.3182 11.0307 17.3423 11.1319 17.4001 11.2236C17.458 11.3152 17.54 11.3827 17.6509 11.4164C17.7618 11.455 17.8775 11.4357 18.0125 11.3586C18.485 11.0596 18.9479 10.7366 19.3915 10.3798C19.8351 10.0278 20.2449 9.64687 20.6162 9.24186C20.7946 9.05381 20.9778 8.85612 21.1658 8.64397C21.3491 8.43664 21.5226 8.21484 21.6769 7.97858C21.8312 7.74714 21.9518 7.50124 22.0434 7.25534C22.1254 7.00943 22.1736 6.74424 22.1687 6.46941C22.1398 5.90045 21.9518 5.45686 21.5853 5.13381C21.19 4.8204 20.7464 4.58414 20.2256 4.43467C19.7049 4.2852 19.1552 4.21287 18.5863 4.20805C18.0173 4.20805 17.5062 4.2418 17.0674 4.30449C15.9054 4.47324 14.7916 4.80112 13.7019 5.29292C12.6122 5.78473 11.5756 6.30065 10.5871 6.85514C9.68549 7.36141 8.8176 7.91108 7.97381 8.50414C7.13966 9.10203 6.33927 9.73849 5.5678 10.428C4.83009 11.1127 4.14059 11.8407 3.48967 12.6122C2.84839 13.3837 2.26979 14.1985 1.77316 15.0471C1.49351 15.5148 1.2235 16.0066 0.977592 16.5225C0.731687 17.0433 0.514713 17.5737 0.350777 18.104C0.186841 18.6344 0.0711213 19.1793 0.0229048 19.7289C-0.0253118 20.2786 0.00361815 20.8186 0.100051 21.3587C0.206127 21.9035 0.408637 22.3809 0.712401 22.81C1.01616 23.2391 1.38261 23.6056 1.80692 23.9093C2.23604 24.2131 2.71339 24.4493 3.24377 24.6229C3.77415 24.7965 4.31417 24.8929 4.85902 24.917C5.5003 24.9412 6.15122 24.8929 6.80215 24.7772C7.45789 24.6615 8.09435 24.5168 8.71634 24.3384C9.85425 24.0491 10.9584 23.7116 12.0336 23.3307C13.3307 22.8871 14.6084 22.3953 15.8476 21.8553C17.0915 21.3104 18.3211 20.7367 19.5313 20.1243C20.7174 19.5072 21.865 18.8514 22.9884 18.1523C23.649 17.7376 24.2903 17.294 24.9219 16.8311C24.8496 17.159 24.8207 17.4869 24.8448 17.8196C24.8496 18.3741 24.9749 18.8755 25.2257 19.3191C25.4812 19.7627 25.8091 20.1436 26.2045 20.4522C26.6095 20.7656 27.0724 20.997 27.5979 21.1465C28.1187 21.296 28.6539 21.3442 29.218 21.2912C29.7484 21.2574 30.2691 21.161 30.7754 21.0067C31.2913 20.8524 31.7928 20.674 32.2797 20.457C32.7764 20.2449 33.2489 20.0038 33.707 19.7338C34.1698 19.4638 34.6231 19.1889 35.0715 18.9093C35.5585 18.6103 36.0455 18.2969 36.518 17.9642C36.8314 17.7521 37.1303 17.5255 37.4341 17.3037C37.3955 17.4772 37.3618 17.6556 37.3425 17.8389C37.2798 18.3355 37.3377 18.8418 37.5064 19.3625C37.68 19.8881 38.0127 20.2738 38.5141 20.5342C38.842 20.6981 39.2133 20.8042 39.6183 20.8427C40.0281 20.8861 40.4187 20.891 40.7996 20.8572C41.2914 20.8186 41.788 20.756 42.2847 20.6692C42.7765 20.5824 43.2683 20.4715 43.7408 20.3413C44.8787 20.0665 45.9925 19.7338 47.0774 19.3432C48.1623 18.9527 49.252 18.5428 50.3368 18.0944C50.8624 17.8726 51.3928 17.6508 51.928 17.4194C52.4632 17.1879 52.9984 16.9565 53.5239 16.7154C53.7843 16.59 54.0254 16.4743 54.2713 16.3538C54.17 16.7299 54.1315 17.1108 54.1556 17.4965C54.1604 18.051 54.2858 18.5525 54.5365 18.9961C54.792 19.4396 55.1199 19.8206 55.5153 20.1291C55.9203 20.4426 56.3832 20.674 56.9087 20.8235C57.4295 20.9729 57.9647 21.0211 58.5288 20.9681C59.0592 20.9344 59.5799 20.8379 60.0862 20.6836C60.6021 20.5293 61.1036 20.3509 61.5906 20.134C62.0872 19.9218 62.5597 19.6807 63.0178 19.4107C63.4806 19.1407 63.9339 18.8659 64.3823 18.5862C64.8693 18.2873 65.3563 17.9739 65.8288 17.6412C66.311 17.3133 66.7738 16.9758 67.2319 16.6334C67.5405 16.4116 67.8683 16.1802 68.201 15.915C68.2155 15.9054 68.23 15.8909 68.2444 15.8813C68.2444 16.0259 68.2396 16.1657 68.2493 16.3104C68.2878 16.9035 68.4855 17.4628 68.8423 17.9835C69.1413 18.3982 69.5125 18.7502 69.9465 19.0443C70.3949 19.3384 70.8819 19.5554 71.4074 19.6856C72.0873 19.8495 72.772 19.9025 73.4663 19.8495C74.1654 19.7964 74.8501 19.6904 75.5203 19.5264C76.1809 19.3818 76.8366 19.2082 77.4875 19.0057C78.1385 18.808 78.7894 18.6103 79.421 18.4175C80.0189 18.2246 80.612 18.0221 81.2195 17.8051C81.8174 17.593 82.4105 17.3663 82.9891 17.1301C83.5387 16.9035 84.0739 16.6672 84.6139 16.4116C84.5657 16.6045 84.5368 16.7974 84.5223 16.9951C84.4741 17.3712 84.5175 17.7183 84.6429 18.0462C84.7682 18.3741 84.9563 18.6682 85.207 18.9189C85.4481 19.1696 85.7277 19.3914 86.0556 19.5698C86.3738 19.7531 86.7306 19.8784 87.1116 19.9507C87.8107 20.0809 88.505 20.1099 89.1993 20.0327C89.8888 19.9556 90.5735 19.835 91.2582 19.6759C92.0971 19.483 92.9072 19.2371 93.6931 18.943C94.4694 18.6489 95.2601 18.3451 96.0509 18.0269C96.5234 17.8244 97.0008 17.6074 97.4685 17.3856C97.4926 17.376 97.5167 17.3663 97.536 17.3519C97.4202 17.5447 97.319 17.7424 97.2322 17.9401C97.0538 18.3596 96.9959 18.7646 97.0442 19.1648C97.102 19.565 97.3624 19.9122 97.8301 20.1966C98.2592 20.457 98.7173 20.5583 99.1994 20.4956C99.6768 20.4377 100.13 20.2979 100.559 20.0809C101.036 19.8398 101.499 19.5891 101.948 19.3239C102.401 19.0587 102.854 18.7935 103.317 18.5235C103.819 18.2246 104.301 17.9256 104.797 17.6267C105.289 17.3278 105.771 17.024 106.254 16.7106L106.943 16.2622C106.9 16.5225 106.9 16.7781 106.953 17.024C107.039 17.3904 107.213 17.7183 107.473 18.0028C107.729 18.2824 108.038 18.5139 108.385 18.6778C108.819 18.8562 109.262 18.9575 109.715 18.9623C110.169 18.9768 110.622 18.9478 111.066 18.8803C111.943 18.7453 112.796 18.5573 113.631 18.3066C114.46 18.0607 115.284 17.7665 116.104 17.4338C116.519 17.2603 116.929 17.0867 117.329 16.9083C117.729 16.7347 118.134 16.5515 118.529 16.3634C118.934 16.1609 119.364 15.9536 119.802 15.7463C120.236 15.5438 120.612 15.2834 120.945 14.97C121.07 14.8446 121.143 14.7096 121.148 14.5601C121.157 14.4251 121.123 14.2998 121.051 14.1792ZM71.0217 11.4261C71.1615 10.9391 71.3158 10.4569 71.4894 9.97957C71.8269 9.04899 72.2175 8.1377 72.6611 7.25534C73.1047 6.37297 73.5868 5.50025 74.1076 4.64682C74.339 4.29002 74.5704 3.94286 74.8067 3.61017C75.0478 3.27747 75.3082 2.95442 75.6023 2.64584C75.7132 2.52047 75.8482 2.38065 76.0073 2.236C76.1616 2.09135 76.3352 1.95152 76.5136 1.82616C76.692 1.70079 76.8848 1.59472 77.0825 1.50793C77.2802 1.42114 77.4683 1.37774 77.6515 1.37292C77.8009 1.37292 77.9118 1.44525 77.989 1.59954C78.071 1.75383 78.1192 1.93705 78.1433 2.13956C78.1722 2.35172 78.1819 2.55423 78.1867 2.75191C78.1867 2.95442 78.1915 3.10389 78.1915 3.21479C78.177 3.57159 78.1095 3.92357 77.9842 4.28038C77.854 4.63718 77.7045 4.97952 77.5261 5.30257C77.2175 5.87634 76.8848 6.41637 76.5184 6.92264C76.1471 7.42891 75.7373 7.93037 75.2792 8.427C75.1153 8.61504 74.8887 8.85612 74.5946 9.15024C74.2956 9.44919 73.9822 9.76259 73.635 10.1001C73.2927 10.4376 72.9455 10.7703 72.5791 11.1078C72.2223 11.4454 71.8944 11.7491 71.61 12.0239C71.3207 12.2988 71.0892 12.5109 70.9156 12.6749C70.7324 12.8436 70.636 12.916 70.636 12.9015C70.7517 12.4049 70.8915 11.9179 71.0217 11.4261ZM27.2122 15.2303C27.2942 15.0761 27.8487 14.2949 28.0608 14.0924C28.2874 13.8706 28.5671 13.6826 28.8949 13.5187C29.2228 13.3547 29.5603 13.2824 29.9075 13.3113C30.3077 13.3354 30.5632 13.4704 30.6838 13.7067C30.7995 13.943 30.7272 14.2708 30.5729 14.5264C30.38 14.8446 29.9075 15.3412 29.1794 15.6209C28.8998 15.7318 28.5623 15.8282 28.2344 15.9054C27.921 15.9777 27.2942 16.0115 26.8747 15.9681C26.8699 15.9681 27.1302 15.3846 27.2122 15.2303ZM57.3716 13.7646C57.5982 13.5428 57.8779 13.3547 58.2058 13.1908C58.5336 13.0269 58.8712 12.9545 59.2183 12.9835C59.6185 13.0076 59.8741 13.1426 59.9946 13.3788C60.1103 13.6151 60.038 13.943 59.8837 14.1985C59.6908 14.5167 59.2183 15.0134 58.4902 15.293C58.2106 15.4039 57.8731 15.5004 57.5452 15.5775C57.2318 15.6498 56.605 15.6836 56.1855 15.6402C56.1855 15.6402 56.441 15.0568 56.5278 14.8977C56.605 14.7482 57.1595 13.9671 57.3716 13.7646ZM106.2 15.0327L104.002 16.3972C103.626 16.619 103.259 16.8408 102.893 17.0578C102.531 17.2795 102.16 17.4965 101.784 17.7183C101.427 17.9401 101.061 18.1619 100.689 18.3789C100.323 18.5959 99.9468 18.7887 99.5659 18.9478C99.455 18.9961 99.3055 19.0346 99.1223 19.0684C98.9391 19.1021 98.7944 19.0732 98.7028 18.9816C98.6016 18.89 98.5774 18.7791 98.6208 18.6489C98.6739 18.5187 98.7221 18.4078 98.7655 18.3114C98.9294 18.0173 99.1126 17.7424 99.3296 17.4869C99.5418 17.2313 99.7587 16.9854 99.9805 16.7492C100.94 15.8089 102.063 15.1146 103.361 14.6517C103.987 14.43 104.633 14.2708 105.294 14.1792C105.955 14.0876 106.63 14.0539 107.324 14.078C107.309 14.0973 107.305 14.1117 107.305 14.1262C107.305 14.1744 107.324 14.2082 107.353 14.2419L106.2 15.0327Z" fill="#DDBB67"/>
</svg>
